<svg id="Layer_1" data-name="Layer 1" xmlns="http://www.w3.org/2000/svg" viewBox="0 0 158.4 158.4"><defs><style>.cls-1{fill:#6c65ad;}.cls-2{fill:#655faa;}</style></defs><title>sotto.svg 1</title><rect class="cls-1" width="158.4" height="158.4" rx="6"/><path class="cls-2" d="M102.77,0h17.17s16.33,51.23,36.31,57.7v16S117.41,58.55,102.77,0Z" transform="translate(0 0)"/><path class="cls-2" d="M48.82,0H62.91s18,113.61,57,126.4l36.84,1.27v7.84l-36.34-1.37s-23.06,0-38.52-37.94Z" transform="translate(0 0)"/><path class="cls-2" d="M2.05,0H12.36c.16,4.11.9,13.45,2.27,25.65,4.93,43.65,18,124,41.6,132.75H43.63A4.32,4.32,0,0,1,40,156.53C33.53,147.05,5.75,100.81.11,2.05A2,2,0,0,1,2.05,0Z" transform="translate(0 0)"/></svg>