<?xml version="1.0"?>
<svg xmlns="http://www.w3.org/2000/svg" xmlns:xlink="http://www.w3.org/1999/xlink" xmlns:svgjs="http://svgjs.com/svgjs" version="1.1" width="512" height="512" x="0" y="0" viewBox="0 0 469.33333 469.33333" style="enable-background:new 0 0 512 512" xml:space="preserve" class=""><g><g xmlns="http://www.w3.org/2000/svg" fill="#4caf50"><path d="m437.332031 192h-405.332031c-17.664062 0-32 14.335938-32 32v21.332031c0 17.664063 14.335938 32 32 32h405.332031c17.664063 0 32-14.335937 32-32v-21.332031c0-17.664062-14.335937-32-32-32zm0 0" fill="#7165d5" data-original="#4caf50" style="" class=""/><path d="m192 32v405.332031c0 17.664063 14.335938 32 32 32h21.332031c17.664063 0 32-14.335937 32-32v-405.332031c0-17.664062-14.335937-32-32-32h-21.332031c-17.664062 0-32 14.335938-32 32zm0 0" fill="#7165d5" data-original="#4caf50" style="" class=""/></g></g></svg>
